<svg width="525" height="904" viewBox="0 0 525 904" fill="none" xmlns="http://www.w3.org/2000/svg">
<g opacity="0.1" filter="url(#filter0_f_913_430)">
<path d="M-41.6628 564.124C-60.517 575.752 -75.5718 572.443 -96.9311 576.735C-95.9789 582.237 -94.3623 588.832 -92.4182 594.049C-89.0243 603.158 -85.9162 612.578 -79.8384 620.346C-74.6064 627.034 -65.5098 630.443 -58.3636 634.477C-51.0821 638.587 -45.5895 642.997 -40.3333 649.646C-22.0336 672.797 -15.1862 702.487 -0.68245 727.799C6.08131 739.603 16.6713 748.05 26.8651 756.753C47.1342 774.06 66.3456 792.687 89.2647 806.57C118.826 824.476 150.706 833.756 185.417 831.171C215.336 828.944 244.442 817.968 272.249 807.363C301.09 796.365 328.953 780.784 355.436 765.06C376.426 752.598 396.441 738.426 413.904 721.32C435.948 699.726 449.911 674.538 463.754 647.311C476.722 621.805 491.987 598.554 509.024 575.655C522.962 556.923 534.673 536.389 547.764 517.039C555.221 506.018 561.317 494.763 565.163 481.959C570.197 465.196 574.665 446.956 573.985 429.307C573.218 409.436 568.291 389.62 562.711 370.63C558.481 356.23 553.393 342.23 546.168 329.04C535.741 310.004 520.452 288.583 501.103 277.777C482.727 267.514 461.079 263.673 443.863 251.111C421.882 235.072 408.108 209.873 396.002 186.183C384.645 163.958 373.099 142.982 356.187 124.387C341.069 107.765 322.746 90.6259 302.263 80.925C281.635 71.1553 256.607 69.0418 234.595 75.3382C210.8 82.1447 192.137 94.5046 178.204 115.189C142.517 168.169 147.148 234.068 134.02 293.853C128.474 319.109 119.569 344.721 102.633 364.659C90.3586 379.109 74.4934 389.054 60.5735 401.671C45.7694 415.088 37.1792 434.087 29.3694 452.12C19.7054 474.435 13.8766 498.827 1.21375 519.78C-9.97069 538.286 -23.2011 552.737 -41.6628 564.124Z" fill="#3D87F5"/>
</g>
<defs>
<filter id="filter0_f_913_430" x="-246.931" y="-78.2379" width="970.985" height="1059.84" filterUnits="userSpaceOnUse" color-interpolation-filters="sRGB">
<feFlood flood-opacity="0" result="BackgroundImageFix"/>
<feBlend mode="normal" in="SourceGraphic" in2="BackgroundImageFix" result="shape"/>
<feGaussianBlur stdDeviation="75" result="effect1_foregroundBlur_913_430"/>
</filter>
</defs>
</svg>
